<?xml version="1.0" standalone="no"?><!DOCTYPE svg PUBLIC "-//W3C//DTD SVG 1.1//EN" "http://www.w3.org/Graphics/SVG/1.1/DTD/svg11.dtd"><svg t="1550380770757" class="icon" style="" viewBox="0 0 1024 1024" version="1.1" xmlns="http://www.w3.org/2000/svg" p-id="25160" xmlns:xlink="http://www.w3.org/1999/xlink" width="128" height="128"><defs><style type="text/css"></style></defs><path d="M996.693333 787.285333 738.474667 471.210667c-4.608-5.802667-11.605333-9.216-18.944-9.386667-7.338667-0.170667-14.506667 2.730667-19.456 8.021333l-132.266667 140.8L378.709333 308.906667c-4.608-7.509333-12.8-11.946667-21.674667-11.946667-8.874667 0-17.066667 4.608-21.674667 11.946667L25.429333 803.669333c-7.509333 11.946667-3.925333 27.818667 8.021333 35.328 11.946667 7.509333 27.818667 3.925333 35.328-8.021333l288.256-460.117333 288.256 460.117333c7.509333 11.946667 23.210667 15.530667 35.328 8.021333 11.946667-7.509333 15.530667-23.210667 8.021333-35.328l-92.842667-148.138667 121.514667-129.194667 239.786667 293.376c8.874667 10.922667 25.088 12.629333 36.010667 3.584C1004.032 814.421333 1005.568 798.208 996.693333 787.285333z" p-id="25161" fill="#8a8a8a"></path><path d="M844.8 429.568c1.706667 0 3.242667 0 4.949333-0.170667 66.901333-2.730667 119.296-57.685333 119.296-124.074667 0-1.706667 0-3.242667-0.170667-4.949333-2.730667-66.901333-57.685333-119.296-124.074667-119.296-1.706667 0-3.242667 0-4.949333 0.170667-66.901333 2.730667-119.296 57.685333-119.296 124.074667 0 1.706667 0 3.413333 0.170667 4.949333C723.285333 377.173333 778.410667 429.568 844.8 429.568zM841.898667 232.448l2.901333 0c38.912 0 71.338667 30.890667 72.874667 70.144 0 0 0 2.901333 0 2.901333 0 38.912-30.72 71.338667-70.144 72.874667l-2.901333 0.170667c-38.912 0-71.338667-30.890667-72.874667-70.144l0-2.901333C771.754667 266.410667 802.645333 233.984 841.898667 232.448z" p-id="25162" fill="#8a8a8a"></path></svg>