<?xml version="1.0" standalone="no"?><!DOCTYPE svg PUBLIC "-//W3C//DTD SVG 1.1//EN" "http://www.w3.org/Graphics/SVG/1.1/DTD/svg11.dtd"><svg t="1546398947169" class="icon" style="" viewBox="0 0 1025 1024" version="1.1" xmlns="http://www.w3.org/2000/svg" p-id="1606" xmlns:xlink="http://www.w3.org/1999/xlink" width="200.1953125" height="200"><defs><style type="text/css"></style></defs><path d="M767.94957 427.163718c60.550315 0 109.693623-49.142285 109.693623-109.74175 0-60.551339-49.143309-109.693623-109.693623-109.693623-60.552363 0-109.693623 49.142285-109.693623 109.693623C658.255946 378.021433 707.398231 427.163718 767.94957 427.163718L767.94957 427.163718zM959.92621 61.438095 64.007232 61.438095c-35.696557 0-64.008256 29.021308-64.008256 64.670763l0 748.350817c0 35.649455 28.311698 64.670763 64.008256 64.670763l895.918979 0c35.696557 0 64.008256-29.021308 64.008256-64.670763L1023.934466 126.108859C1023.934466 90.459404 995.622768 61.438095 959.92621 61.438095L959.92621 61.438095zM724.298827 513.326551c-6.863659-8.000264-17.372645-14.20244-29.257845-14.20244-11.644567 0-19.88444 5.491542-29.256821 13.066859l-42.752723 36.075426c-8.899308 6.438712-16.000528 10.746547-26.272978 10.746547-9.799376 0-18.750907-3.645327-25.139445-9.326303-2.272186-2.083775-6.39161-5.964615-9.846479-9.373405L438.82262 407.278254c-9.136869-10.508986-22.868283-17.136109-38.207328-17.136109-15.244839 0-29.447279 7.527191-38.347611 17.800664L73.096998 756.716638 73.096998 161.332343c2.272186-15.528479 14.391874-26.749123 29.967455-26.749123l817.564927 0c15.765015 0 28.596362 11.646615 29.494382 27.412654l0.710634 595.195885L724.298827 513.326551 724.298827 513.326551zM724.298827 513.326551" p-id="1607" fill="#dbdbdb"></path></svg>